<svg width="34" height="34" viewBox="0 0 34 34" fill="none" xmlns="http://www.w3.org/2000/svg">
<path d="M30.6722 0H2.44533C1.09545 0 0 1.06969 0 2.3869V30.7357C0 32.0548 1.09545 33.1259 2.44533 33.1259H30.6722C32.023 33.1259 33.1259 32.0548 33.1259 30.7357V2.3869C33.1259 1.06969 32.023 0 30.6722 0ZM9.82458 28.2278H4.90907V12.4199H9.82458V28.2278ZM7.36682 10.2584C5.79196 10.2584 4.51892 8.98217 4.51892 7.40869C4.51892 5.83751 5.79196 4.56125 7.36682 4.56125C8.938 4.56125 10.2143 5.83751 10.2143 7.40869C10.2143 8.98217 8.938 10.2584 7.36682 10.2584ZM28.226 28.2278H23.3183V20.5408C23.3183 18.7069 23.2824 16.349 20.7644 16.349C18.2073 16.349 17.8176 18.3462 17.8176 20.4078V28.2283H12.9062V12.4199H17.6197V14.5786H17.6869C18.343 13.3364 19.9459 12.0256 22.3365 12.0256C27.3081 12.0256 28.2264 15.2986 28.2264 19.5567V28.2278H28.226Z" fill="#F9F8F2"/>
</svg>
