<svg width="35" height="34" viewBox="0 0 35 34" fill="none" xmlns="http://www.w3.org/2000/svg">
<path fill-rule="evenodd" clip-rule="evenodd" d="M4.5832 0C2.5968 0 0.986511 1.61029 0.986511 3.59669V29.5442C0.986511 31.5306 2.59681 33.1409 4.5832 33.1409H30.5307C32.5171 33.1409 34.1274 31.5306 34.1274 29.5442V3.59669C34.1274 1.61029 32.5171 0 30.5307 0H4.5832ZM17.0731 18.9816C17.3934 19.2619 17.8338 19.2619 18.1541 18.9816L29.4853 8.49129C29.6855 8.09089 29.6455 7.45026 28.8447 7.45026L6.42259 7.4903C5.82199 7.4903 5.34152 8.05085 5.78195 8.53133L17.0731 18.9816ZM29.6054 12.9757C29.6054 12.4552 28.9648 12.1749 28.6044 12.5353L19.7957 20.7033C19.1952 21.2639 18.4344 21.5442 17.6336 21.5442C16.8328 21.5442 16.0721 21.2639 15.4715 20.7033L6.62277 12.5353C6.22237 12.1749 5.62178 12.4552 5.62178 12.9757V23.386C5.62178 24.7073 6.70285 25.7883 8.02415 25.7883H27.2431C28.5644 25.7883 29.6455 24.7073 29.6455 23.386C29.6054 23.386 29.6054 16.1789 29.6054 12.9757Z" fill="#F9F8F2"/>
</svg>
