<svg width="34" height="34" viewBox="0 0 34 34" fill="none" xmlns="http://www.w3.org/2000/svg">
<path d="M33.6191 3.5492V29.5767C33.6191 31.5361 32.0294 33.1259 30.0699 33.1259H11.9099C12.6345 31.9132 13.5662 30.1682 13.9359 28.7411C14.1577 27.8908 15.0672 24.4229 15.0672 24.4229C15.6587 25.5542 17.3889 26.5081 19.2301 26.5081C24.7092 26.5081 28.6503 21.4727 28.6503 15.2172C28.6503 9.22052 23.7553 4.73226 17.4555 4.73226C9.61768 4.73226 5.46216 9.98952 5.46216 15.72C5.46216 18.3819 6.88184 21.6945 9.14446 22.7518C9.49198 22.9145 9.66944 22.8406 9.75078 22.5078C9.80993 22.2564 10.1205 21.0216 10.2536 20.4523C10.2979 20.2674 10.2758 20.1121 10.1279 19.9347C9.38107 19.0252 8.77475 17.3541 8.77475 15.7939C8.77475 11.7863 11.8064 7.91175 16.9749 7.91175C21.4336 7.91175 24.5613 10.9508 24.5613 15.2985C24.5613 20.2082 22.0842 23.6096 18.853 23.6096C17.071 23.6096 15.7401 22.1381 16.1615 20.3266C16.6717 18.1675 17.6625 15.8383 17.6625 14.2781C17.6625 10.3592 12.0799 10.899 12.0799 16.1267C12.0799 17.7312 12.6197 18.8255 12.6197 18.8255C10.2979 28.645 9.95042 28.7707 10.431 33.0667L10.5937 33.1259H4.04248C2.08303 33.1259 0.493286 31.5361 0.493286 29.5767V3.5492C0.493286 1.58975 2.08303 0 4.04248 0H30.0699C32.0294 0 33.6191 1.58975 33.6191 3.5492Z" fill="#F9F8F2"/>
</svg>
